<svg width="92" height="30" viewBox="0 0 92 30" fill="none" xmlns="http://www.w3.org/2000/svg">
<g clip-path="url(#clip0_38_1712)">
<path d="M29.4482 12.3457V4.07022H31.3502L31.5356 5.18839C31.8046 4.78805 32.1612 4.46857 32.6044 4.22896C33.0477 3.99035 33.5615 3.87054 34.1448 3.87054C35.4353 3.87054 36.35 4.36573 36.889 5.35512C37.1922 4.89887 37.5992 4.53745 38.1099 4.27089C38.6207 4.00432 39.1788 3.87054 39.7852 3.87054C40.8732 3.87054 41.7104 4.19302 42.2937 4.83796C42.877 5.48291 43.1691 6.42837 43.1691 7.67434V12.3457H41.0143V7.87502C41.0143 7.16318 40.8763 6.61806 40.6023 6.23968C40.3272 5.8613 39.9031 5.6726 39.3309 5.6726C38.7476 5.6726 38.2792 5.88426 37.9256 6.30657C37.572 6.72988 37.3957 7.31892 37.3957 8.07469V12.3457H35.2408V7.87502C35.2408 7.16318 35.1008 6.61806 34.8197 6.23968C34.5387 5.8613 34.1065 5.6726 33.5232 5.6726C32.951 5.6726 32.4876 5.88426 32.134 6.30657C31.7804 6.72988 31.6041 7.31892 31.6041 8.07469V12.3457H29.4482Z" fill="#FF0000"/>
<path d="M47.9333 12.5464C47.215 12.5464 46.6257 12.4326 46.1653 12.204C45.7049 11.9763 45.3624 11.6728 45.1387 11.2944C44.9141 10.9161 44.8022 10.4997 44.8022 10.0435C44.8022 9.27574 45.1055 8.65275 45.7109 8.17453C46.3174 7.69631 47.2261 7.4567 48.438 7.4567H50.5596V7.25603C50.5596 6.68895 50.3964 6.27163 50.071 6.00507C49.7456 5.7385 49.3416 5.60472 48.8591 5.60472C48.4209 5.60472 48.0401 5.70755 47.7147 5.91322C47.3893 6.11888 47.1868 6.42239 47.1082 6.82273H45.0037C45.0601 6.22171 45.2646 5.69956 45.6182 5.25429C45.9718 4.81001 46.4292 4.46757 46.9903 4.22796C47.5515 3.98935 48.1801 3.86954 48.8762 3.86954C50.0659 3.86954 51.0028 4.16407 51.6879 4.7541C52.3719 5.34414 52.7144 6.17778 52.7144 7.25703V12.3457H50.8789L50.6764 11.0109C50.4296 11.4562 50.0841 11.8226 49.6408 12.1121C49.1986 12.4016 48.6294 12.5464 47.9333 12.5464ZM48.4219 10.8781C49.0394 10.8781 49.5189 10.6775 49.8614 10.2771C50.204 9.87676 50.4196 9.38157 50.5092 8.79252H48.6737C48.1015 8.79252 47.6915 8.89536 47.4447 9.10102C47.1979 9.30669 47.074 9.56027 47.074 9.85979C47.074 10.1823 47.1969 10.4329 47.4447 10.6106C47.6915 10.7893 48.0179 10.8781 48.4219 10.8781Z" fill="#FF0000"/>
<path d="M54.6003 12.3457V0.333309H56.7552V7.42376L59.718 4.07022H62.2768L58.8597 7.84108L62.8329 12.3457H60.1391L56.7552 8.19151V12.3457H54.6003Z" fill="#FF0000"/>
<path d="M65.156 2.78631C64.7631 2.78631 64.4407 2.6695 64.1879 2.43588C63.935 2.20226 63.8091 1.90774 63.8091 1.55132C63.8091 1.1959 63.935 0.90338 64.1879 0.675751C64.4407 0.448122 64.7631 0.333309 65.156 0.333309C65.5489 0.333309 65.8712 0.447124 66.1241 0.675751C66.377 0.90338 66.5029 1.1959 66.5029 1.55132C66.5029 1.90774 66.377 2.20226 66.1241 2.43588C65.8712 2.6695 65.5479 2.78631 65.156 2.78631ZM64.0781 12.3457V4.07022H66.2329V12.3457H64.0781Z" fill="#FF0000"/>
<path d="M68.3201 12.3457V4.07022H70.2221L70.3903 5.47193C70.6482 4.98273 71.0219 4.59337 71.5095 4.30384C71.9981 4.01431 72.5723 3.86954 73.2352 3.86954C74.2678 3.86954 75.0697 4.19202 75.6429 4.83697C76.2151 5.48192 76.5012 6.42738 76.5012 7.67335V12.3447H74.3464V7.87502C74.3464 7.16318 74.2003 6.61807 73.9082 6.23968C73.616 5.8613 73.1617 5.67261 72.5441 5.67261C71.9377 5.67261 71.441 5.88426 71.0542 6.30658C70.6673 6.72989 70.4729 7.31893 70.4729 8.07469V12.3457H68.3201Z" fill="#FF0000"/>
<path d="M81.9232 9.87676C81.5192 9.87676 81.1435 9.83283 80.7949 9.74297L80.1723 10.36C80.3627 10.4598 80.6206 10.5437 80.947 10.6106C81.2724 10.6775 81.8003 10.7443 82.5297 10.8112C83.6408 10.9111 84.4488 11.1726 84.9535 11.595C85.4582 12.0183 85.7111 12.6013 85.7111 13.3471C85.7111 13.8363 85.5761 14.3005 85.3071 14.7398C85.0381 15.1791 84.622 15.5345 84.0609 15.8081C83.4998 16.0806 82.7815 16.2164 81.9061 16.2164C80.7163 16.2164 79.7563 15.9968 79.0269 15.5575C78.2975 15.1182 77.9329 14.4593 77.9329 13.5807C77.9329 12.8349 78.2975 12.19 79.0269 11.6459C78.8023 11.546 78.6088 11.4402 78.4456 11.3284C78.2824 11.2176 78.1394 11.1008 78.0165 10.978V10.5946L79.4812 9.05909C78.8305 8.49201 78.5051 7.7632 78.5051 6.87365C78.5051 6.31755 78.6421 5.81138 78.9171 5.35512C79.1921 4.89887 79.582 4.53745 80.0867 4.27089C80.5914 4.00432 81.2029 3.87054 81.9222 3.87054C82.3937 3.87054 82.8309 3.93743 83.2359 4.07121H86.4011V5.37309L84.9706 5.47293C85.1953 5.89624 85.3071 6.36348 85.3071 6.87465C85.3071 7.43074 85.1721 7.93692 84.9031 8.39317C84.6341 8.84943 84.2433 9.21084 83.7335 9.47741C83.2218 9.74297 82.6183 9.87676 81.9232 9.87676ZM79.9023 13.3641C79.9023 13.7754 80.0958 14.0839 80.4836 14.2896C80.8705 14.4952 81.345 14.5981 81.9061 14.5981C82.445 14.5981 82.8823 14.4892 83.2197 14.2726C83.5562 14.0559 83.7244 13.7634 83.7244 13.397C83.7244 13.0965 83.6146 12.8469 83.396 12.6462C83.1774 12.4456 82.7422 12.3238 82.0914 12.2788C81.6311 12.2459 81.2049 12.196 80.812 12.1291C80.4866 12.3068 80.2539 12.5015 80.1139 12.7131C79.9729 12.9238 79.9023 13.1414 79.9023 13.3641ZM81.9232 8.24142C82.3614 8.24142 82.7231 8.12461 83.0092 7.89099C83.2953 7.65737 83.4383 7.32391 83.4383 6.88962C83.4383 6.45633 83.2953 6.12187 83.0092 5.88825C82.7231 5.65463 82.3614 5.53782 81.9232 5.53782C81.4628 5.53782 81.0921 5.65463 80.812 5.88825C80.531 6.12187 80.3909 6.45533 80.3909 6.88962C80.3909 7.32391 80.531 7.65737 80.812 7.89099C81.0921 8.12461 81.4628 8.24142 81.9232 8.24142Z" fill="#FF0000"/>
<path d="M30.6098 16.5689C30.217 16.5689 29.8946 16.4521 29.6417 16.2184C29.3889 15.9848 29.2629 15.6903 29.2629 15.3339C29.2629 14.9785 29.3889 14.6859 29.6417 14.4583C29.8946 14.2307 30.217 14.1159 30.6098 14.1159C31.0027 14.1159 31.3251 14.2297 31.578 14.4583C31.8308 14.6859 31.9567 14.9785 31.9567 15.3339C31.9567 15.6903 31.8308 15.9848 31.578 16.2184C31.3251 16.4521 31.0027 16.5689 30.6098 16.5689ZM29.5329 26.1293V17.8538H31.6878V26.1293H29.5329Z" fill="#FF0000"/>
<path d="M33.7751 26.1293V17.8538H35.6771L35.8454 19.2555C36.1033 18.7663 36.477 18.3769 36.9646 18.0874C37.4532 17.7979 38.0274 17.6531 38.6903 17.6531C39.7229 17.6531 40.5258 17.9756 41.098 18.6205C41.6702 19.2655 41.9563 20.2109 41.9563 21.4569V26.1283H39.8015V21.6566C39.8015 20.9447 39.6554 20.3996 39.3642 20.0212C39.0721 19.6428 38.6178 19.4542 38.0002 19.4542C37.3938 19.4542 36.8971 19.6658 36.5103 20.0881C36.1234 20.5114 35.929 21.1005 35.929 21.8562V26.1273H33.7751V26.1293Z" fill="#FF0000"/>
<path d="M47.6805 26.329C46.8947 26.329 46.1935 26.1393 45.576 25.7619C44.9585 25.3835 44.4709 24.8663 44.1112 24.2104C43.7516 23.5545 43.5723 22.8087 43.5723 21.9751C43.5723 21.1404 43.7516 20.3986 44.1112 19.7477C44.4699 19.0967 44.9585 18.5856 45.576 18.2132C46.1935 17.8408 46.8947 17.6541 47.6805 17.6541C48.3091 17.6541 48.8591 17.7709 49.3306 18.0045C49.8021 18.2381 50.1839 18.5666 50.475 18.9889V14.1169H52.6299V26.1293H50.7108L50.475 24.9452C50.206 25.3126 49.8494 25.6351 49.4062 25.9126C48.9629 26.1902 48.3877 26.329 47.6805 26.329ZM48.1348 24.461C48.8309 24.461 49.4001 24.2304 49.8434 23.7691C50.2866 23.3079 50.5083 22.7159 50.5083 21.992C50.5083 21.2692 50.2866 20.6772 49.8434 20.2149C49.4001 19.7537 48.8299 19.5221 48.1348 19.5221C47.4498 19.5221 46.8836 19.7497 46.4343 20.2059C45.985 20.6622 45.7614 21.2512 45.7614 21.9741C45.7614 22.6969 45.986 23.2919 46.4343 23.7592C46.8836 24.2274 47.4508 24.461 48.1348 24.461Z" fill="#FF0000"/>
<path d="M55.8122 16.5689C55.4193 16.5689 55.097 16.4521 54.8441 16.2184C54.5913 15.9848 54.4653 15.6903 54.4653 15.3339C54.4653 14.9785 54.5913 14.6859 54.8441 14.4583C55.097 14.2307 55.4193 14.1159 55.8122 14.1159C56.2051 14.1159 56.5275 14.2297 56.7804 14.4583C57.0332 14.6859 57.1591 14.9785 57.1591 15.3339C57.1591 15.6903 57.0332 15.9848 56.7804 16.2184C56.5275 16.4521 56.2041 16.5689 55.8122 16.5689ZM54.7343 26.1293V17.8538H56.8892V26.1293H54.7343Z" fill="#FF0000"/>
<path d="M62.5123 23.6603C62.1083 23.6603 61.7326 23.6164 61.384 23.5265L60.7614 24.1435C60.9518 24.2434 61.2097 24.3272 61.5361 24.3941C61.8615 24.461 62.3894 24.5279 63.1188 24.5948C64.2299 24.6946 65.0379 24.9562 65.5426 25.3785C66.0473 25.8018 66.3002 26.3849 66.3002 27.1307C66.3002 27.6199 66.1652 28.0841 65.8962 28.5234C65.6272 28.9627 65.2112 29.3181 64.65 29.5916C64.0889 29.8642 63.3706 30 62.4952 30C61.3054 30 60.3454 29.7803 59.616 29.3411C58.8867 28.9018 58.522 28.2428 58.522 27.3643C58.522 26.6185 58.8867 25.9735 59.616 25.4294C59.3914 25.3296 59.1979 25.2238 59.0347 25.1129C58.8715 25.0021 58.7285 24.8853 58.6056 24.7625V24.3791L60.0704 22.8436C59.4196 22.2766 59.0942 21.5477 59.0942 20.6582C59.0942 20.1021 59.2312 19.5959 59.5062 19.1397C59.7812 18.6834 60.1711 18.322 60.6758 18.0554C61.1805 17.7889 61.792 17.6551 62.5113 17.6551C62.9828 17.6551 63.42 17.722 63.825 17.8558H66.9902V19.1576L65.5597 19.2575C65.7844 19.6798 65.8962 20.147 65.8962 20.6592C65.8962 21.2153 65.7612 21.7215 65.4922 22.1777C65.2232 22.634 64.8324 22.9954 64.3216 23.262C63.8109 23.5265 63.2074 23.6603 62.5123 23.6603ZM60.4915 27.1466C60.4915 27.558 60.6849 27.8665 61.0727 28.0731C61.4596 28.2788 61.9341 28.3816 62.4952 28.3816C63.0342 28.3816 63.4714 28.2728 63.8089 28.0561C64.1453 27.8395 64.3136 27.547 64.3136 27.1806C64.3136 26.8801 64.2038 26.6305 63.9851 26.4298C63.7665 26.2291 63.3313 26.1073 62.6806 26.0624C62.2202 26.0294 61.794 25.9795 61.4011 25.9126C61.0758 26.0903 60.843 26.285 60.703 26.4967C60.562 26.7073 60.4915 26.924 60.4915 27.1466ZM62.5123 22.025C62.9505 22.025 63.3122 21.9082 63.5983 21.6745C63.8844 21.4409 64.0275 21.1075 64.0275 20.6732C64.0275 20.2389 63.8844 19.9054 63.5983 19.6718C63.3122 19.4382 62.9505 19.3214 62.5123 19.3214C62.0519 19.3214 61.6812 19.4382 61.4011 19.6718C61.1201 19.9054 60.98 20.2389 60.98 20.6732C60.98 21.1065 61.1201 21.4409 61.4011 21.6745C61.6812 21.9082 62.0519 22.025 62.5123 22.025Z" fill="#FF0000"/>
<path d="M69.5491 16.5689C69.1562 16.5689 68.8338 16.4521 68.5809 16.2184C68.3281 15.9848 68.2021 15.6903 68.2021 15.3339C68.2021 14.9785 68.3281 14.6859 68.5809 14.4583C68.8338 14.2307 69.1562 14.1159 69.5491 14.1159C69.9419 14.1159 70.2643 14.2297 70.5172 14.4583C70.769 14.6859 70.896 14.9785 70.896 15.3339C70.896 15.6903 70.77 15.9848 70.5172 16.2184C70.2643 16.4521 69.9419 16.5689 69.5491 16.5689ZM68.4711 26.1293V17.8538H70.626V26.1293H68.4711Z" fill="#FF0000"/>
<path d="M76.4347 26.1293C75.5593 26.1293 74.8581 25.9176 74.3302 25.4953C73.8023 25.073 73.5394 24.3222 73.5394 23.243V19.6389H72.1089V17.8538H73.5394L73.7923 15.6344H75.6943V17.8538H77.9498V19.6389H75.6943V23.259C75.6943 23.6593 75.7809 23.9349 75.9552 24.0846C76.1294 24.2344 76.4297 24.3102 76.8558 24.3102H77.8995V26.1293H76.4347Z" fill="#FF0000"/>
<path d="M82.5114 26.329C81.7931 26.329 81.2038 26.2151 80.7434 25.9865C80.283 25.7589 79.9405 25.4554 79.7168 25.077C79.4922 24.6986 79.3804 24.2823 79.3804 23.826C79.3804 23.0583 79.6836 22.4353 80.2891 21.9571C80.8955 21.4789 81.8042 21.2392 83.0161 21.2392H85.1377V21.0396C85.1377 20.4725 84.9745 20.0552 84.6491 19.7886C84.3237 19.522 83.9198 19.3883 83.4372 19.3883C82.999 19.3883 82.6182 19.4911 82.2928 19.6968C81.9674 19.9024 81.7649 20.2059 81.6863 20.6063H79.5819C79.6383 20.0053 79.8428 19.4831 80.1964 19.0378C80.55 18.5936 81.0073 18.2511 81.5685 18.0115C82.1296 17.7729 82.7582 17.6531 83.4543 17.6531C84.6441 17.6531 85.581 17.9476 86.266 18.5377C86.95 19.1277 87.2926 19.9613 87.2926 21.0406V26.1293H85.4581L85.2556 24.7945C85.0088 25.2397 84.6632 25.6061 84.22 25.8957C83.7767 26.1842 83.2075 26.329 82.5114 26.329ZM83 24.6607C83.6175 24.6607 84.0971 24.46 84.4396 24.0597C84.7821 23.6593 84.9977 23.1641 85.0873 22.5751H83.2518C82.6796 22.5751 82.2696 22.6779 82.0228 22.8836C81.776 23.0892 81.6521 23.3428 81.6521 23.6423C81.6521 23.9648 81.775 24.2154 82.0228 24.3931C82.2706 24.5718 82.596 24.6607 83 24.6607Z" fill="#FF0000"/>
<path d="M89.1785 26.1293V14.1169H91.3333V26.1293H89.1785Z" fill="#FF0000"/>
<path d="M20.9408 10.6755C23.1802 10.6755 24.9956 8.87634 24.9956 6.65701C24.9956 4.43768 23.1802 2.63856 20.9408 2.63856C18.7014 2.63856 16.886 4.43768 16.886 6.65701C16.886 8.87634 18.7014 10.6755 20.9408 10.6755Z" fill="#FF0000"/>
<path d="M20.9408 18.7134C23.1802 18.7134 24.9956 16.9142 24.9956 14.6949C24.9956 12.4756 23.1802 10.6765 20.9408 10.6765C18.7014 10.6765 16.886 12.4756 16.886 14.6949C16.886 16.9142 18.7014 18.7134 20.9408 18.7134Z" fill="#FF0000"/>
<path d="M12.8312 16.2174C13.6797 16.2174 14.3675 15.5358 14.3675 14.6949C14.3675 13.8541 13.6797 13.1724 12.8312 13.1724C11.9827 13.1724 11.2949 13.8541 11.2949 14.6949C11.2949 15.5358 11.9827 16.2174 12.8312 16.2174Z" fill="#FF0000"/>
<path d="M4.72156 18.7134C6.96098 18.7134 8.77638 16.9142 8.77638 14.6949C8.77638 12.4756 6.96098 10.6765 4.72156 10.6765C2.48215 10.6765 0.666748 12.4756 0.666748 14.6949C0.666748 16.9142 2.48215 18.7134 4.72156 18.7134Z" fill="#FF0000"/>
<path d="M12.8312 26.7503C15.0706 26.7503 16.886 24.9511 16.886 22.7318C16.886 20.5125 15.0706 18.7134 12.8312 18.7134C10.5918 18.7134 8.77637 20.5125 8.77637 22.7318C8.77637 24.9511 10.5918 26.7503 12.8312 26.7503Z" fill="#FF0000"/>
<path d="M4.72156 26.7503C6.96098 26.7503 8.77638 24.9511 8.77638 22.7318C8.77638 20.5125 6.96098 18.7134 4.72156 18.7134C2.48215 18.7134 0.666748 20.5125 0.666748 22.7318C0.666748 24.9511 2.48215 26.7503 4.72156 26.7503Z" fill="#FF0000"/>
<path d="M20.9408 26.7503C23.1802 26.7503 24.9956 24.9511 24.9956 22.7318C24.9956 20.5125 23.1802 18.7134 20.9408 18.7134C18.7014 18.7134 16.886 20.5125 16.886 22.7318C16.886 24.9511 18.7014 26.7503 20.9408 26.7503Z" fill="#FF0000"/>
<path d="M20.9408 18.7134H16.886V26.7503H20.9408V18.7134Z" fill="#FF0000"/>
<path d="M12.8312 10.6755C15.0706 10.6755 16.886 8.87634 16.886 6.65701C16.886 4.43768 15.0706 2.63856 12.8312 2.63856C10.5918 2.63856 8.77637 4.43768 8.77637 6.65701C8.77637 8.87634 10.5918 10.6755 12.8312 10.6755Z" fill="#FF0000"/>
<path d="M16.886 6.657H8.77637V10.6755H16.886V6.657Z" fill="#FF0000"/>
<path d="M4.72156 10.6755C6.96098 10.6755 8.77638 8.87634 8.77638 6.65701C8.77638 4.43768 6.96098 2.63856 4.72156 2.63856C2.48215 2.63856 0.666748 4.43768 0.666748 6.65701C0.666748 8.87634 2.48215 10.6755 4.72156 10.6755Z" fill="#FF0000"/>
<path d="M8.77638 6.657H0.666748V10.6755H8.77638V6.657Z" fill="#FF0000"/>
</g>
<defs>
<clipPath id="clip0_38_1712">
<rect width="90.6667" height="29.6667" fill="white" transform="translate(0.666748 0.333332)"/>
</clipPath>
</defs>
</svg>
